<?xml version="1.0" encoding="utf-8"?>
<!-- Generator: Adobe Illustrator 19.2.1, SVG Export Plug-In . SVG Version: 6.00 Build 0)  -->
<!DOCTYPE svg PUBLIC "-//W3C//DTD SVG 1.1//EN" "http://www.w3.org/Graphics/SVG/1.1/DTD/svg11.dtd">
<svg version="1.1" id="Layer_1" xmlns="http://www.w3.org/2000/svg" xmlns:xlink="http://www.w3.org/1999/xlink" x="0px" y="0px"
	 viewBox="0 0 320 498" enable-background="new 0 0 320 498" xml:space="preserve">
<g>
	<g>
		<g>
			<line fill="none" stroke="#4A4A4A" stroke-width="3" stroke-miterlimit="10" x1="45" y1="61.2" x2="42.1" y2="63.9"/>
			
				<line fill="none" stroke="#4A4A4A" stroke-width="3" stroke-miterlimit="10" stroke-dasharray="7.755,3.8775" x1="39.3" y1="66.6" x2="-229.3" y2="321.4"/>
		</g>
	</g>
	<g>
		<g>
			<line fill="none" stroke="#4A4A4A" stroke-width="3" stroke-miterlimit="10" x1="45" y1="61.2" x2="48.7" y2="60.2"/>
			
				<line fill="none" stroke="#4A4A4A" stroke-width="3" stroke-miterlimit="10" stroke-dasharray="7.8462,3.9231" x1="52.5" y1="59.2" x2="482.8" y2="-55.3"/>
		</g>
	</g>
	<g>
		<g>
			<line fill="none" stroke="#4A4A4A" stroke-width="3" stroke-miterlimit="10" x1="45" y1="61.2" x2="48.5" y2="62.9"/>
			
				<line fill="none" stroke="#4A4A4A" stroke-width="3" stroke-miterlimit="10" stroke-dasharray="7.8189,3.9094" x1="52" y1="64.6" x2="188.1" y2="129"/>
			<line fill="none" stroke="#4A4A4A" stroke-width="3" stroke-miterlimit="10" x1="189.8" y1="129.8" x2="193.3" y2="131.5"/>
		</g>
	</g>
	<g>
		<g>
			<line fill="none" stroke="#4A4A4A" stroke-width="3" stroke-miterlimit="10" x1="45" y1="61.2" x2="46.8" y2="57.8"/>
			
				<line fill="none" stroke="#4A4A4A" stroke-width="3" stroke-miterlimit="10" stroke-dasharray="7.7242,3.8621" x1="48.6" y1="54.4" x2="156.8" y2="-148.4"/>
		</g>
	</g>
	<g>
		<g>
			<line fill="none" stroke="#4A4A4A" stroke-width="3" stroke-miterlimit="10" x1="45" y1="61.2" x2="47.8" y2="58.6"/>
			
				<line fill="none" stroke="#4A4A4A" stroke-width="3" stroke-miterlimit="10" stroke-dasharray="7.7798,3.8899" x1="50.7" y1="56" x2="470.6" y2="-329.3"/>
		</g>
	</g>
	<g>
		<g>
			<line fill="none" stroke="#4A4A4A" stroke-width="3" stroke-miterlimit="10" x1="71" y1="290.3" x2="70.6" y2="286.4"/>
			<path fill="none" stroke="#4A4A4A" stroke-width="3" stroke-miterlimit="10" stroke-dasharray="7.7932,3.8966" d="M70.1,282.6
				L45,61.2c-86.7-100.2-267.1-90.7-273.2,52.1"/>
		</g>
	</g>
	<path fill="none" stroke="#4A4A4A" stroke-width="3" stroke-miterlimit="10" stroke-dasharray="7.8096,3.9048" d="M359.3-69.6
		C169.3-158.7,45,61.2,45,61.2c-34.5,109.3,54.7,166.6,121.7,136s63.1-123,27.3-155.5"/>
	
		<line fill="none" stroke="#4A4A4A" stroke-width="3" stroke-miterlimit="10" stroke-dasharray="7.8096,3.9048" x1="45" y1="61.2" x2="-398.2" y2="-81.3"/>
	<path fill="none" stroke="#4A4A4A" stroke-width="3" stroke-miterlimit="10" stroke-dasharray="7.8096,3.9048" d="M45,61.2
		c0,0-46.9-65.7-14.3-105.4s63.1-83.3-19.5-156.2"/>
	<circle fill="#4A4A4A" cx="45.6" cy="60.6" r="9.2"/>
	<circle fill="#4A4A4A" cx="194" cy="41.7" r="5.5"/>
	<circle fill="#4A4A4A" cx="193.3" cy="131.5" r="5.5"/>
	<circle fill="#4A4A4A" cx="71" cy="290.3" r="5.5"/>
	<circle opacity="0.2" fill="none" stroke="#4A4A4A" stroke-width="0.5" stroke-miterlimit="10" cx="45" cy="61.2" r="108.9"/>
	<circle opacity="0.2" fill="none" stroke="#4A4A4A" stroke-width="0.5" stroke-miterlimit="10" cx="45" cy="61.2" r="1416.1"/>
	<circle opacity="0.2" fill="none" stroke="#4A4A4A" stroke-width="0.5" stroke-miterlimit="10" cx="45" cy="61.2" r="1361.7"/>
	<circle opacity="0.2" fill="none" stroke="#4A4A4A" stroke-width="0.5" stroke-miterlimit="10" cx="45" cy="61.2" r="1307.2"/>
	<circle opacity="0.2" fill="none" stroke="#4A4A4A" stroke-width="0.5" stroke-miterlimit="10" cx="45" cy="61.2" r="1252.7"/>
	<circle opacity="0.2" fill="none" stroke="#4A4A4A" stroke-width="0.5" stroke-miterlimit="10" cx="45" cy="61.2" r="1198.3"/>
	<circle opacity="0.2" fill="none" stroke="#4A4A4A" stroke-width="0.5" stroke-miterlimit="10" cx="45" cy="61.2" r="1143.8"/>
	<circle opacity="0.2" fill="none" stroke="#4A4A4A" stroke-width="0.5" stroke-miterlimit="10" cx="45" cy="61.2" r="1089.3"/>
	<circle opacity="0.2" fill="none" stroke="#4A4A4A" stroke-width="0.5" stroke-miterlimit="10" cx="45" cy="61.2" r="1034.9"/>
	<circle opacity="0.2" fill="none" stroke="#4A4A4A" stroke-width="0.5" stroke-miterlimit="10" cx="45" cy="61.2" r="980.4"/>
	<circle opacity="0.2" fill="none" stroke="#4A4A4A" stroke-width="0.5" stroke-miterlimit="10" cx="45" cy="61.2" r="925.9"/>
	<circle opacity="0.2" fill="none" stroke="#4A4A4A" stroke-width="0.5" stroke-miterlimit="10" cx="45" cy="61.2" r="871.5"/>
	<circle opacity="0.2" fill="none" stroke="#4A4A4A" stroke-width="0.5" stroke-miterlimit="10" cx="45" cy="61.2" r="817"/>
	<circle opacity="0.2" fill="none" stroke="#4A4A4A" stroke-width="0.5" stroke-miterlimit="10" cx="45" cy="61.2" r="54.5"/>
	<circle opacity="0.2" fill="none" stroke="#4A4A4A" stroke-width="0.5" stroke-miterlimit="10" cx="45" cy="61.2" r="272.3"/>
	<circle opacity="0.2" fill="none" stroke="#4A4A4A" stroke-width="0.5" stroke-miterlimit="10" cx="45" cy="61.2" r="217.9"/>
	<circle opacity="0.2" fill="none" stroke="#4A4A4A" stroke-width="0.5" stroke-miterlimit="10" cx="45" cy="61.2" r="163.4"/>
	<circle opacity="0.2" fill="none" stroke="#4A4A4A" stroke-width="0.5" stroke-miterlimit="10" cx="45" cy="61.2" r="762.5"/>
	<circle opacity="0.2" fill="none" stroke="#4A4A4A" stroke-width="0.5" stroke-miterlimit="10" cx="45" cy="61.2" r="708.1"/>
	<circle opacity="0.2" fill="none" stroke="#4A4A4A" stroke-width="0.5" stroke-miterlimit="10" cx="45" cy="61.2" r="653.6"/>
	<circle opacity="0.2" fill="none" stroke="#4A4A4A" stroke-width="0.5" stroke-miterlimit="10" cx="45" cy="61.2" r="599.1"/>
	<circle opacity="0.2" fill="none" stroke="#4A4A4A" stroke-width="0.5" stroke-miterlimit="10" cx="45" cy="61.2" r="544.7"/>
	<circle opacity="0.2" fill="none" stroke="#4A4A4A" stroke-width="0.5" stroke-miterlimit="10" cx="45" cy="61.2" r="490.2"/>
	<circle opacity="0.2" fill="none" stroke="#4A4A4A" stroke-width="0.5" stroke-miterlimit="10" cx="45" cy="61.2" r="435.7"/>
	<circle opacity="0.2" fill="none" stroke="#4A4A4A" stroke-width="0.5" stroke-miterlimit="10" cx="45" cy="61.2" r="381.3"/>
	<circle opacity="0.2" fill="none" stroke="#4A4A4A" stroke-width="0.5" stroke-miterlimit="10" cx="45" cy="61.2" r="326.8"/>
	<g>
		<g>
			<line fill="none" stroke="#4A4A4A" stroke-width="3" stroke-miterlimit="10" x1="45" y1="61.2" x2="48.9" y2="61.4"/>
			
				<line fill="none" stroke="#4A4A4A" stroke-width="3" stroke-miterlimit="10" stroke-dasharray="7.7869,3.8935" x1="52.8" y1="61.5" x2="973.1" y2="90"/>
		</g>
	</g>
	<g>
		<g>
			<line fill="none" stroke="#4A4A4A" stroke-width="3" stroke-miterlimit="10" x1="45" y1="61.2" x2="43.8" y2="57.5"/>
			
				<line fill="none" stroke="#4A4A4A" stroke-width="3" stroke-miterlimit="10" stroke-dasharray="7.8784,3.9392" x1="42.7" y1="53.7" x2="-41.9" y2="-227.3"/>
		</g>
	</g>
	<g>
		<g>
			<line fill="none" stroke="#4A4A4A" stroke-width="3" stroke-miterlimit="10" x1="45" y1="61.2" x2="46.9" y2="64.6"/>
			
				<line fill="none" stroke="#4A4A4A" stroke-width="3" stroke-miterlimit="10" stroke-dasharray="7.909,3.9545" x1="48.8" y1="68.1" x2="156.8" y2="263.7"/>
			<line fill="none" stroke="#4A4A4A" stroke-width="3" stroke-miterlimit="10" x1="157.8" y1="265.4" x2="159.7" y2="268.8"/>
		</g>
	</g>
</g>
<g>
	<g>
		<g>
			<path fill="#C6DDE7" d="M180.2,316.6c-5.7,0-12.9-3.7-20.2-10.6c-7.4,6.8-14.5,10.6-20.2,10.6c-2.1,0-4.1-0.5-5.8-1.5
				c-6.4-3.7-8.2-13.5-5.1-27.1c-13.3-4.1-20.9-10.6-20.9-18c0-7.4,7.6-13.9,20.9-18c-3.1-13.6-1.3-23.4,5.1-27.1
				c1.7-1,3.7-1.5,5.8-1.5c4.8,0,10.6,2.6,16.6,7.5c1.2,0.9,2.3,2,3.5,3.1c1.2-1.1,2.4-2.2,3.5-3.1c6.1-4.9,11.8-7.5,16.6-7.5
				c2.1,0,4.1,0.5,5.8,1.5c6.4,3.7,8.2,13.5,5.1,27.1c13.3,4.1,20.9,10.6,20.9,18s-7.6,13.9-20.9,18c3.1,13.6,1.3,23.4-5.1,27.1
				C184.3,316.1,182.4,316.6,180.2,316.6L180.2,316.6z"/>
			<path fill="#C6DDE7" d="M139.8,225.5c4.3,0,9.6,2.4,15.4,7.1c1.6,1.3,3.2,2.7,4.8,4.3c1.6-1.6,3.2-3,4.8-4.3
				c5.8-4.7,11.1-7.1,15.4-7.1c1.8,0,3.4,0.4,4.8,1.2c6,3.5,7.1,13.7,3.7,26.7c13,3.6,21.3,9.6,21.3,16.6c0,7-8.3,13-21.3,16.6
				c3.4,13,2.3,23.2-3.7,26.7c-1.4,0.8-3,1.2-4.8,1.2c0,0,0,0,0,0c-5.7,0-12.9-4.2-20.2-11.4c-7.3,7.2-14.6,11.4-20.2,11.4
				c-1.7,0-3.3-0.4-4.8-1.2c-6-3.5-7.1-13.7-3.7-26.7C118.3,283,110,277,110,270.1c0-7,8.3-13,21.3-16.6c-3.4-13-2.3-23.2,3.7-26.7
				C136.4,225.9,138,225.5,139.8,225.5 M139.8,221.5L139.8,221.5c-2.5,0-4.8,0.6-6.8,1.8c-6.9,4-9.2,13.9-6.4,27.5
				c-13.1,4.4-20.6,11.3-20.6,19.3c0,8,7.4,14.9,20.6,19.3c-2.8,13.6-0.5,23.5,6.4,27.5c2,1.2,4.3,1.7,6.8,1.7
				c7.2,0,14.6-4.9,20.2-9.9c5.6,5,13,9.9,20.2,9.9c2.5,0,4.8-0.6,6.8-1.7c6.9-4,9.2-13.9,6.4-27.5C206.6,285,214,278,214,270.1
				c0-8-7.4-14.9-20.6-19.3c2.8-13.6,0.5-23.5-6.4-27.5c-2-1.2-4.3-1.8-6.8-1.8c-5.3,0-11.4,2.7-17.9,8c-0.8,0.6-1.5,1.3-2.3,1.9
				c-0.8-0.7-1.5-1.3-2.3-1.9C151.2,224.2,145.2,221.5,139.8,221.5L139.8,221.5z"/>
		</g>
	</g>
	<g>
		<circle fill="#4A4A4A" cx="160" cy="270.1" r="9.2"/>
		<path fill="#4A4A4A" d="M210,270.1c0-7-8.3-13-21.3-16.6c3.4-13,2.3-23.2-3.7-26.7c-4.9-2.8-12.1-0.7-20.2,5.8
			c-1.6,1.3-3.2,2.7-4.8,4.3c-1.6-1.6-3.2-3-4.8-4.3c-8.1-6.6-15.3-8.7-20.2-5.8c-6,3.5-7.1,13.7-3.7,26.7
			c-13,3.6-21.3,9.6-21.3,16.6c0,7,8.3,13,21.3,16.6c-3.4,13-2.3,23.2,3.7,26.7c1.4,0.8,3,1.2,4.8,1.2c5.7,0,12.9-4.2,20.2-11.4
			c7.3,7.2,14.6,11.4,20.2,11.4c1.7,0,3.4-0.4,4.8-1.2c6-3.5,7.1-13.7,3.7-26.7C201.7,283,210,277,210,270.1z M166.7,234.9
			c7-5.7,13.2-7.7,16.8-5.6c4.4,2.5,5.4,11.4,2.3,23.4c-4.4-1.1-9.3-1.8-14.5-2.3c-3-4.2-6.1-8-9.2-11.4
			C163.6,237.5,165.1,236.2,166.7,234.9z M174.9,278.6c-1.7,2.9-3.4,5.7-5.2,8.2c-3.1,0.2-6.3,0.4-9.7,0.4c-3.4,0-6.6-0.1-9.7-0.4
			c-1.8-2.6-3.5-5.3-5.2-8.2c-1.7-2.9-3.2-5.8-4.5-8.6c1.3-2.8,2.8-5.7,4.5-8.6c1.6-2.9,3.4-5.6,5.2-8.2c3.1-0.2,6.3-0.4,9.7-0.4
			c3.4,0,6.6,0.1,9.7,0.4c1.8,2.6,3.5,5.4,5.2,8.2c1.7,2.9,3.2,5.8,4.5,8.6C178,272.9,176.5,275.7,174.9,278.6z M181,273.6
			c1.7,3.8,3,7.5,4.1,11c-3.5,0.8-7.4,1.5-11.5,2c1.3-2,2.7-4.2,3.9-6.4C178.7,277.9,179.9,275.7,181,273.6z M160,299
			c-2.5-2.6-5-5.6-7.5-9c2.4,0.1,4.9,0.2,7.5,0.2c2.5,0,5-0.1,7.5-0.2C165,293.4,162.5,296.4,160,299z M146.5,286.5
			c-4.2-0.5-8-1.1-11.5-2c1-3.4,2.4-7.1,4.1-11c1.1,2.2,2.3,4.4,3.5,6.6C143.8,282.3,145.1,284.5,146.5,286.5z M139,266.6
			c-1.7-3.8-3-7.5-4.1-11c3.5-0.8,7.4-1.5,11.5-2c-1.3,2.1-2.7,4.2-3.9,6.4C141.3,262.2,140.1,264.4,139,266.6z M160,241.2
			c2.5,2.7,5,5.7,7.5,9c-2.4-0.1-4.9-0.2-7.5-0.2c-2.5,0-5,0.1-7.5,0.2C155,246.9,157.5,243.9,160,241.2z M177.4,260
			c-1.3-2.2-2.6-4.3-3.9-6.4c4.2,0.5,8,1.1,11.5,2c-1,3.4-2.4,7.1-4.1,11C179.9,264.4,178.7,262.2,177.4,260z M136.5,229.3
			c3.7-2.1,9.8-0.1,16.8,5.6c1.5,1.2,3.1,2.6,4.6,4.1c-3.2,3.3-6.3,7.2-9.2,11.4c-5.2,0.5-10.1,1.3-14.5,2.3
			C131.1,240.7,132.1,231.9,136.5,229.3z M113,270.1c0-5.1,7.1-10.4,19.1-13.7c1.3,4.4,3.1,9,5.3,13.7c-2.2,4.7-4,9.4-5.3,13.7
			C120.1,280.4,113,275.1,113,270.1z M136.5,310.8c-4.4-2.5-5.4-11.4-2.3-23.4c4.4,1.1,9.3,1.8,14.5,2.3c3,4.3,6.1,8.1,9.3,11.4
			C149,309.8,140.9,313.3,136.5,310.8z M183.5,310.8c-0.9,0.5-2,0.8-3.3,0.8c-4.6,0-11.1-3.6-18.1-10.5c3.1-3.3,6.2-7.1,9.3-11.4
			c5.2-0.5,10.1-1.3,14.5-2.3C188.9,299.4,187.9,308.2,183.5,310.8z M187.9,283.8c-1.3-4.4-3.1-9-5.3-13.7c2.2-4.7,4-9.4,5.3-13.7
			c12,3.3,19.1,8.6,19.1,13.7S199.9,280.4,187.9,283.8z"/>
	</g>
</g>
</svg>
